<svg width="42" height="42" viewBox="0 0 42 42" fill="none" xmlns="http://www.w3.org/2000/svg">
    <path d="M21 18.9167C20.4475 18.9167 19.9176 19.1362 19.5269 19.5268C19.1362 19.9176 18.9167 20.4475 18.9167 21V27.25C18.9167 27.8025 19.1362 28.3324 19.5269 28.7231C19.9176 29.1138 20.4475 29.3333 21 29.3333C21.5526 29.3333 22.0825 29.1138 22.4732 28.7231C22.8639 28.3324 23.0834 27.8025 23.0834 27.25V21C23.0834 20.4475 22.8639 19.9176 22.4732 19.5268C22.0825 19.1362 21.5526 18.9167 21 18.9167ZM21 12.6667C20.588 12.6667 20.1852 12.7888 19.8426 13.0178C19.5 13.2467 19.233 13.5721 19.0753 13.9527C18.9176 14.3334 18.8763 14.7523 18.9567 15.1564C19.0371 15.5606 19.2355 15.9318 19.5269 16.2231C19.8182 16.5145 20.1895 16.7129 20.5936 16.7933C20.9977 16.8737 21.4166 16.8324 21.7973 16.6747C22.178 16.5171 22.5033 16.25 22.7323 15.9074C22.9612 15.5648 23.0834 15.162 23.0834 14.75C23.0834 14.1975 22.8639 13.6676 22.4732 13.2769C22.0825 12.8861 21.5526 12.6667 21 12.6667ZM21 0.166656C18.2642 0.166656 15.5551 0.705527 13.0275 1.7525C10.4998 2.79947 8.20319 4.33404 6.26863 6.2686C2.36163 10.1756 0.166693 15.4746 0.166693 21C0.14848 25.8107 1.81418 30.4761 4.87503 34.1875L0.708359 38.3542C0.419281 38.6471 0.223456 39.0191 0.145593 39.4233C0.06773 39.8274 0.111319 40.2456 0.270859 40.625C0.443897 40.9998 0.72441 41.3148 1.07679 41.53C1.42917 41.7451 1.83753 41.8507 2.25003 41.8333H21C26.5254 41.8333 31.8244 39.6384 35.7314 35.7314C39.6384 31.8244 41.8334 26.5253 41.8334 21C41.8334 15.4746 39.6384 10.1756 35.7314 6.2686C31.8244 2.36159 26.5254 0.166656 21 0.166656ZM21 37.6667H7.27086L9.20836 35.7292C9.40521 35.5362 9.56181 35.3061 9.6691 35.0522C9.77638 34.7983 9.83221 34.5256 9.83336 34.25C9.82553 33.7005 9.60089 33.1763 9.20836 32.7917C6.48041 30.0667 4.78164 26.4803 4.40147 22.6433C4.02129 18.8063 4.98324 14.9563 7.12342 11.749C9.26359 8.54174 12.4496 6.17574 16.1386 5.0541C19.8276 3.93246 23.7914 4.12458 27.3546 5.59773C30.9179 7.07087 33.8601 9.7339 35.6801 13.1331C37.5001 16.5323 38.0852 20.4574 37.3357 24.2396C36.5862 28.0218 34.5486 31.4272 31.5699 33.8755C28.5912 36.3238 24.8558 37.6636 21 37.6667Z" fill="black"/>
</svg>
